<?xml version="1.0" standalone="no"?>
<!DOCTYPE svg PUBLIC "-//W3C//DTD SVG 20010904//EN"
 "http://www.w3.org/TR/2001/REC-SVG-20010904/DTD/svg10.dtd">
<svg version="1.0" xmlns="http://www.w3.org/2000/svg"
 width="260.000000pt" height="260.000000pt" viewBox="0 0 260.000000 260.000000"
 preserveAspectRatio="xMidYMid meet">
<metadata>
Created by potrace 1.14, written by Peter Selinger 2001-2017
</metadata>
<g transform="translate(0.000000,260.000000) scale(0.100000,-0.100000)"
fill="#000000" stroke="none">
<path d="M815 1756 c-60 -19 -97 -41 -131 -78 -47 -50 -64 -90 -64 -154 0
-132 89 -218 295 -283 91 -29 117 -44 149 -81 55 -66 22 -166 -62 -190 -121
-33 -240 20 -258 116 l-6 34 -74 0 -74 0 0 -27 c0 -44 43 -125 85 -162 22 -19
64 -46 95 -60 48 -23 68 -26 161 -26 102 0 109 1 174 35 92 48 128 97 133 186
6 87 -15 139 -79 199 -53 50 -105 76 -237 119 -110 37 -152 75 -152 139 0 56
34 102 88 117 110 30 210 -17 228 -109 l7 -31 75 0 75 0 -6 41 c-12 90 -100
184 -199 214 -62 18 -168 19 -223 1z"/>
<path d="M1370 1305 l0 -455 75 0 75 0 0 195 0 195 195 0 195 0 0 60 0 60
-195 0 -195 0 0 140 0 140 220 0 220 0 0 60 0 60 -295 0 -295 0 0 -455z"/>
</g>
</svg>
