 <svg  version="1.0" xmlns="http://www.w3.org/2000/svg"  width="1044.000000pt" height="1044.000000pt" viewBox="0 0 1044.000000 1044.000000"  preserveAspectRatio="xMidYMid meet">  <g transform="translate(0.000000,1044.000000) scale(0.100000,-0.100000)" fill="#3d3d3d" stroke="none"> <path d="M3860 6393 c-116 -26 -250 -71 -301 -102 -19 -12 -43 -25 -54 -30 -40 -18 -140 -108 -188 -166 -54 -68 -100 -153 -128 -239 -27 -83 -27 -298 0 -382 21 -65 69 -160 109 -214 31 -42 119 -131 143 -145 10 -5 48 -31 86 -56 67 -45 95 -60 203 -114 50 -24 282 -107 355 -126 103 -26 284 -109 352 -162 48 -36 101 -103 129 -162 29 -61 27 -223 -4 -286 -22 -45 -90 -122 -128 -146 -97 -61 -188 -83 -339 -83 -126 0 -189 11 -272 46 -17 8 -34 14 -37 14 -7 0 -96 61 -115 80 -73 71 -141 210 -141 291 0 20 -6 42 -14 48 -9 8 -77 11 -222 9 l-209 -3 -3 -39 c-8 -96 47 -261 128 -386 43 -67 150 -177 210 -216 25 -16 47 -31 50 -35 3 -3 41 -22 85 -43 44 -21 93 -44 108 -52 16 -8 36 -14 44 -14 8 0 36 -6 62 -14 103 -32 153 -39 300 -44 116 -3 177 0 250 13 368 65 612 253 692 533 27 93 27 286 0 380 -25 86 -81 197 -131 257 -28 33 -116 121 -146 145 -18 15 -91 64 -129 86 -36 22 -166 84 -175 84 -4 0 -21 6 -37 14 -42 22 -91 39 -283 101 -158 51 -237 83 -295 118 -67 40 -165 130 -165 151 0 5 -6 17 -14 25 -40 47 -38 209 5 297 28 59 100 130 166 163 96 47 159 61 282 61 116 0 172 -12 268 -60 56 -27 147 -117 169 -166 33 -75 53 -139 54 -170 0 -64 2 -65 235 -62 l210 3 3 39 c8 92 -74 319 -151 421 -129 170 -317 281 -573 339 -92 21 -350 20 -444 -1z"/> <path d="M5425 6368 c-3 -7 -4 -620 -3 -1363 l3 -1350 220 0 220 0 5 580 5 580 565 3 c357 1 568 6 574 12 14 14 14 329 0 341 -6 5 -257 10 -575 11 l-564 3 -3 409 c-2 321 1 411 10 418 7 4 301 8 652 8 352 0 643 3 648 8 5 5 7 85 6 178 l-3 169 -878 3 c-697 2 -879 0 -882 -10z"/> </g> </svg> 